<?xml version="1.0" encoding="UTF-8"?>
<svg id="Layer_1" xmlns="http://www.w3.org/2000/svg" version="1.1" viewBox="0 0 24 24">
  <!-- Generator: Adobe Illustrator 30.0.0, SVG Export Plug-In . SVG Version: 2.1.1 Build 123)  -->
  <defs>
    <style>
      .st0 {
        fill: currentColor;
      }
    </style>
  </defs>
  <path class="st0" d="M15.7,19.9h-7.4c-.83,0-1.51-.62-1.58-1.44l-1.11-11.73c-.01-.13.03-.27.12-.36.09-.1.22-.16.35-.16h11.83c.13,0,.26.06.35.16.09.1.13.23.12.36l-1.11,11.73c-.07.8-.75,1.43-1.56,1.44h-.01ZM6.6,7.17l1.06,11.21c.03.33.3.58.64.58h7.39c.33,0,.61-.25.64-.58l1.06-11.21H6.6Z"/>
  <path class="st0" d="M18.79,7.17H5.21c-.26,0-.48-.21-.48-.48s.21-.48.48-.48h13.58c.26,0,.47.21.47.48s-.21.48-.47.48Z"/>
  <path class="st0" d="M13.93,7.06h-3.86c-.21,0-.38-.17-.38-.38v-3.28c0-.21.17-.38.38-.38h3.86c.21,0,.38.17.38.38v3.28c0,.21-.17.38-.38.38ZM10.44,6.31h3.11v-2.53h-3.11v2.53Z"/>
  <path class="st0" d="M10.07,17.04c-.26,0-.48-.21-.48-.47v-7.12c0-.26.21-.48.48-.48s.48.21.48.48v7.12c0,.26-.21.47-.48.47Z"/>
  <path class="st0" d="M13.93,17.04c-.26,0-.47-.21-.47-.47v-7.12c0-.26.21-.48.47-.48s.47.21.47.48v7.12c0,.26-.21.47-.47.47Z"/>
</svg>