<?xml version="1.0" encoding="UTF-8"?>
<svg id="Layer_1" data-name="Layer 1" xmlns="http://www.w3.org/2000/svg" viewBox="0 0 24 24">
  <defs>
    <style>
      .cls-1 {
        fill: currentColor;
        stroke: currentColor;
        stroke-miterlimit: 10;
      }
    </style>
  </defs>
  <path class="cls-1" d="M16.23,8.83H4.76l4.14-2.64c.18-.11.23-.35.12-.52-.11-.18-.35-.23-.52-.12l-5.38,3.43c-.11.07-.17.19-.17.32s.07.25.17.32l5.38,3.43c.06.04.13.06.2.06.12,0,.25-.06.32-.18.11-.18.06-.41-.12-.52l-4.14-2.63h11.46c2.14,0,3.89,1.74,3.89,3.89s-1.74,3.89-3.89,3.89h-1.75c-.26,0-.47.21-.47.47s.21.47.47.47h1.75c2.67,0,4.83-2.17,4.83-4.83s-2.17-4.83-4.83-4.83Z"/>
</svg>